<svg t="1687660489590" class="icon" viewBox="0 0 1047 1024" version="1.1" xmlns="http://www.w3.org/2000/svg" p-id="1930" width="200" height="200"><path d="M69.824877 0c6.475982 0 12.919233 0.900091 19.145059 2.673388l435.696804 124.142466L958.333078 2.74937c34.425571-9.849571 70.218813 7.927817 83.65589 40.179141l2.692091 7.692859A69.726685 69.726685 0 0 1 1047.378995 69.827215v884.236858c0 38.535598-31.262393 69.774612-69.824876 69.774612-6.52274 0-13.013918-0.914119-19.284165-2.714301L526.343014 897.052055 88.907982 1021.325443c-34.445443 9.779434-70.202447-8.070429-83.572895-40.349808l-2.676895-7.698703A69.726685 69.726685 0 0 1 0 954.207854V69.774612C0 31.239014 31.262393 0 69.824877 0z m0 69.774612v884.433242l447.091726-126.928073a34.937571 34.937571 0 0 1 19.182465 0.029224l441.453882 126.755068V69.828384l-443.218996 126.80884a34.937571 34.937571 0 0 1-19.182465 0.011689L69.824877 69.774612zM315.031963 265.351598c58.426447 0 105.789954 47.363507 105.789955 105.789955 0 22.324603-6.915507 43.033717-18.720731 60.10389l89.625717 118.971032A105.67189 105.67189 0 0 1 525.442922 544.730594c13.536438 0 26.47905 2.542466 38.376621 7.176182l75.285041-69.3421C634.031342 470.191342 631.232877 456.645553 631.232877 442.447489c0-58.426447 47.363507-105.789954 105.789954-105.789955s105.789954 47.363507 105.789954 105.789955-47.363507 105.789954-105.789954 105.789954c-18.831781 0-36.514484-4.921279-51.831233-13.54579l-68.187178 62.802995C626.052091 613.084932 631.232877 631.197808 631.232877 650.520548c0 58.426447-47.363507 105.789954-105.789955 105.789954S419.652968 708.946995 419.652968 650.520548c0-21.257352 6.269078-41.04884 17.059653-57.629224l-90.804018-120.536256A105.780603 105.780603 0 0 1 315.031963 476.931507c-58.426447 0-105.789954-47.363507-105.789954-105.789954s47.363507-105.789954 105.789954-105.789955z m210.410959 349.905242c-19.474703 0-35.263708 15.787836-35.263707 35.263708 0 19.474703 15.787836 35.263708 35.263707 35.263708 19.474703 0 35.263708-15.787836 35.263708-35.263708 0-19.474703-15.787836-35.263708-35.263708-35.263708z m211.579909-208.073059c-19.474703 0-35.263708 15.787836-35.263708 35.263708 0 19.474703 15.787836 35.263708 35.263708 35.263707 19.474703 0 35.263708-15.787836 35.263708-35.263707 0-19.474703-15.787836-35.263708-35.263708-35.263708z m-421.990868-71.305936c-19.474703 0-35.263708 15.787836-35.263707 35.263708 0 19.474703 15.787836 35.263708 35.263707 35.263707 19.474703 0 35.263708-15.787836 35.263708-35.263707 0-19.474703-15.787836-35.263708-35.263708-35.263708z" fill="#ffffff" p-id="1931"></path></svg>